<svg height="511pt" viewBox="0 -16 511.99981 511" width="511pt" xmlns="http://www.w3.org/2000/svg"><path d="m508.765625 201.574219-68.765625-51.019531v-126.554688c0-4.417969-3.582031-8-8-8h-95c-4.417969 0-8 3.582031-8 8v44.199219l-68.234375-50.625c-2.828125-2.097657-6.703125-2.097657-9.53125 0l-248 184c-2.773437 2.058593-3.914063 5.660156-2.832031 8.9375 1.085937 3.277343 4.148437 5.488281 7.597656 5.488281h48v256c0 4.417969 3.582031 8 8 8h384c4.417969 0 8-3.582031 8-8v-256h48c3.449219 0 6.511719-2.210938 7.59375-5.488281 1.085938-3.277344-.054688-6.878907-2.828125-8.9375zm0 0" fill="#f7e786"/><path d="m96 472v-280l195.097656-151.921875-30.328125-22.503906c-2.832031-2.101563-6.703125-2.101563-9.535156 0l-248 184c-2.769531 2.054687-3.910156 5.660156-2.828125 8.933593 1.082031 3.277344 4.144531 5.492188 7.59375 5.492188h48v256c0 4.417969 3.582031 8 8 8h40c-4.417969 0-8-3.582031-8-8zm0 0" fill="#f2d835"/><path d="m288 168h-64c-26.46875 0-48 21.53125-48 48v72c0 8.820312 7.179688 16 16 16s16-7.179688 16-16v-72c0-8.824219 7.175781-16 16-16h64c8.820312 0 16 7.175781 16 16v72c0 8.820312 7.175781 16 16 16 8.820312 0 16-7.179688 16-16v-72c0-26.46875-21.535156-48-48-48zm0 0" fill="#dfdbdd"/><path d="m176 288c0 8.820312 7.179688 16 16 16s16-7.179688 16-16v-24h-32zm0 0" fill="#bfb7bb"/><path d="m304 264v24c0 8.820312 7.175781 16 16 16 8.820312 0 16-7.179688 16-16v-24zm0 0" fill="#bfb7bb"/><path d="m336 280h-160c-17.644531 0-32 14.355469-32 32v120c0 4.417969 3.582031 8 8 8h208c4.417969 0 8-3.582031 8-8v-120c0-17.644531-14.355469-32-32-32zm0 0" fill="#9fe5ad"/><path d="m176 432v-120c0-17.644531 14.355469-32 32-32h-32c-17.644531 0-32 14.355469-32 32v120c0 4.417969 3.582031 8 8 8h32c-4.417969 0-8-3.582031-8-8zm0 0" fill="#5fd477"/><path d="m288 344c0-17.644531-14.355469-32-32-32s-32 14.355469-32 32c0 14.882812 10.214844 27.425781 24 30.984375v25.015625c0 4.417969 3.582031 8 8 8s8-3.582031 8-8v-25.015625c13.785156-3.558594 24-16.101563 24-30.984375zm0 0" fill="#7e6f78"/><g fill="#cde07d"><path d="m72 95.5c-4.140625 0-7.5-3.355469-7.5-7.5 0-30.601562 24.898438-55.5 55.5-55.5 4.140625 0 7.5 3.355469 7.5 7.5s-3.359375 7.5-7.5 7.5c-22.332031 0-40.5 18.167969-40.5 40.5 0 4.144531-3.359375 7.5-7.5 7.5zm0 0"/><path d="m40 95.5c-4.140625 0-7.5-3.355469-7.5-7.5 0-48.25 39.253906-87.5 87.5-87.5 4.140625 0 7.5 3.355469 7.5 7.5s-3.359375 7.5-7.5 7.5c-39.976562 0-72.5 32.523438-72.5 72.5 0 4.144531-3.359375 7.5-7.5 7.5zm0 0"/><path d="m104 95.5c-4.140625 0-7.5-3.355469-7.5-7.5 0-12.957031 10.542969-23.5 23.5-23.5 4.140625 0 7.5 3.355469 7.5 7.5s-3.359375 7.5-7.5 7.5c-4.6875 0-8.5 3.8125-8.5 8.5 0 4.144531-3.359375 7.5-7.5 7.5zm0 0"/></g></svg>